<svg viewBox="0 0 48 48" xml:space="preserve" xmlns="http://www.w3.org/2000/svg"><path clip-rule="evenodd" d="M37 47H11a4 4 0 0 1-4-4V8a4 4 0 0 1 4-4h3a1 1 0 1 1 0 2h-3a2 2 0 0 0-2 2v35a2 2 0 0 0 2 2h26a2 2 0 0 0 2-2V8a2 2 0 0 0-2-2h-3a1 1 0 1 1 0-2h3a4 4 0 0 1 4 4v35a4 4 0 0 1-4 4zM35 9a1 1 0 0 1-1 1H14a1 1 0 1 1 0-2s1.125-.125 2-1l2-2s.781-1 2-1h1a3 3 0 0 1 6 0h1c1.312 0 2 1 2 1l2 2c.875.875 2 1 2 1a1 1 0 0 1 1 1zM24 3a1 1 0 0 0-1 1h2a1 1 0 0 0-1-1zm5.363 4s-.679-1-1.817-1h-7.091c-1.14 0-1.818 1-1.818 1l-.909 1h12.545l-.91-1z" fill-rule="evenodd" fill="#333333" class="fill-000000"></path></svg>