<svg viewBox="0 0 512 512" xml:space="preserve" xmlns="http://www.w3.org/2000/svg"><path d="M255.994 57.339c-109.543 0-198.655 89.123-198.655 198.667 0 109.542 89.111 198.654 198.655 198.654 109.549 0 198.666-89.111 198.666-198.654 0-109.544-89.117-198.667-198.666-198.667zm0 365.985c-92.259 0-167.319-75.059-167.319-167.318 0-92.271 75.06-167.331 167.319-167.331 92.271 0 167.33 75.06 167.33 167.331 0 92.259-75.058 167.318-167.33 167.318z" fill="#333333" class="fill-000000"></path><path d="M277.33 190.101c19.613 0 34.643 5.21 51.197 12.254l4.287-34.641c-15.633-7.659-35.871-11.338-55.484-11.338-46.593 0-83.073 27.898-94.104 72.96H160.84l-8.588 24.823h27.597v4.294c0 5.826.308 11.65.917 16.861h-28.2l-9.191 26.367h44.134c14.715 36.787 48.439 58.848 89.822 58.848 19.613 0 39.852-3.678 55.484-11.338l-4.287-34.641c-16.555 7.057-31.584 12.268-51.197 12.268-22.687 0-38.319-9.203-47.522-25.137h56.104l9.197-26.367h-73.877c-.929-5.211-1.23-10.723-1.23-16.861v-4.294h71.73l9.203-24.823h-76.941c7.345-23.917 24.521-39.235 53.335-39.235z" fill="#333333" class="fill-000000"></path></svg>