<svg viewBox="0 0 30 30" xml:space="preserve" xmlns="http://www.w3.org/2000/svg"><path d="M25.1 4.7c-.4.4-.4 1.1 0 1.6.4.4 1.1.4 1.6 0 .4-.4.4-1.1 0-1.6-.4-.4-1.1-.4-1.6 0zm4.1-.8L26.1.8c-.9-.8-2.3-.9-3.2 0L.8 22.9c-.9.9-.9 2.3 0 3.2l3.1 3.1c.4.4 1 .7 1.6.7.6 0 1.2-.2 1.6-.7L29.2 7.1c.4-.4.7-1 .7-1.6s-.3-1.2-.7-1.6zm-1.1 2.2-22 22c-.3.3-.8.3-1.1 0L1.9 25c-.3-.3-.3-.8 0-1.1l1.7-1.7 1 1c.1.1.3.2.5.2s.4-.1.5-.2c.3-.3.3-.8 0-1.1l-1-1 2.9-2.9 1 1c.1.1.3.2.5.2s.4-.1.5-.2c.3-.3.3-.8 0-1.1l-1-1 2.9-2.9 1 1c.1.1.3.2.5.2s.4-.1.5-.2c.3-.3.3-.8 0-1.1l-1-1 2.9-2.9 1 1c.1.1.3.2.5.2s.4-.1.5-.2c.3-.3.3-.8 0-1.1l-1-1 2.9-2.9 1 1c.1.1.3.2.5.2s.4-.1.5-.2c.3-.3.3-.8 0-1.1l-1-1 3.5-3.5c.1-.1.3-.2.5-.2s.4.1.5.2L28.1 5c.1.1.2.3.2.5s0 .4-.2.6z" fill="#333333" class="fill-262324"></path></svg>