<?xml version="1.0" ?><svg id="Layer_1" style="enable-background:new 0 0 24 24;" version="1.1" viewBox="0 0 24 24" xml:space="preserve" xmlns="http://www.w3.org/2000/svg" xmlns:xlink="http://www.w3.org/1999/xlink"><style type="text/css">
	.st0{fill:none;stroke:#000000;stroke-width:1.6724;stroke-linecap:round;stroke-linejoin:round;stroke-miterlimit:10;}
	.st1{fill:none;stroke:#000000;stroke-width:1.5;stroke-linecap:round;stroke-linejoin:round;stroke-miterlimit:10;}
	.st2{fill:none;stroke:#000000;stroke-width:1.5;stroke-linejoin:round;stroke-miterlimit:10;}
</style><g><g><path class="st1" d="M23.3,13.3l-0.6,2.8l-3.2,0c-0.5,1-1.2,1.9-2.1,2.6l0.8,3.1L15.6,23l-1.9-2.5c-0.5,0.1-1.1,0.2-1.7,0.2    c-0.6,0-1.1-0.1-1.6-0.2L8.4,23l-2.6-1.3l0.7-3.1c-0.8-0.7-1.5-1.6-2-2.6l-3.2,0l-0.6-2.8L3.6,12c0-1.1,0.3-2.2,0.7-3.2l-2-2.5    l1.8-2.3l2.8,1.4c0.9-0.7,1.9-1.1,3-1.4h0L10.6,1h2.9l0.7,3.1h0c1.1,0.3,2.1,0.8,3,1.4l2.8-1.4l1.8,2.3l-2,2.4    c0.4,1,0.7,2.1,0.7,3.2L23.3,13.3z"/></g><circle class="st1" cx="12" cy="12.2" r="3.5"/></g></svg>