<svg baseProfile="tiny" viewBox="0 0 32 32" xml:space="preserve" xmlns="http://www.w3.org/2000/svg"><path d="M25.26 12.931c.573 2.006.222 4.021-1.057 5.299-2.222 2.222-5.114 1.185-7.337.266l-6.452 6.452c-.78.78-2.049.78-2.828 0s-.78-2.049 0-2.828l6.452-6.452c-.432-1.043-2.323-4.748.266-7.337 1.279-1.279 3.293-1.63 5.299-1.057l-3.699 3.699 1.414 4.243 4.243 1.414 3.699-3.699m.575-3.403-4.814 4.814-2.121-.707-.707-2.121L23.007 6.7c-3.37-2.297-7.594-2.306-10.117.218-2.081 2.081-2.435 5.319-1.21 8.281l-5.508 5.508a4 4 0 0 0 5.657 5.657l5.508-5.508c2.962 1.225 6.2.871 8.281-1.21 2.522-2.524 2.513-6.748.217-10.118z" fill="#333333" class="fill-000000"></path></svg>